<svg xmlns="http://www.w3.org/2000/svg" viewBox="0 0 127.56 127.56">
  <defs>
    <style>
      .d { font-size: 6px; }
      .d, .e, .f, .g { font-family: Helvetica-Light, Helvetica; }
      .h { font-family: "Basel Grotesk", sans-serif; }
      .h, .i { font-size: 11px; }
      .e { font-size: 9px; }
      .f { font-size: 5px; }
      .i { font-family: Helvetica, Helvetica; }
      .g { font-size: 7px; }
      .j {
      fill: none;
      stroke: #000;
      stroke-miterlimit: 10;
      stroke-width: 0.5px;
      }
    </style>
  </defs>

  <!-- Outermost band (clockwise rotation) -->
  <g id="outer-band">
    <animateTransform attributeName="transform" attributeType="XML" type="rotate" from="0 63.78 63.78" to="360 63.78 63.78" dur="30s" repeatCount="indefinite" />
    <g id="a">
      <circle class="j" cx="63.78" cy="63.78" r="58.11" />
      <circle class="j" cx="63.78" cy="63.78" r="60.94" />
    </g>
    <g id="c">
      <text class="h" transform="translate(19.06 46.59) rotate(-65.63) scale(.89 1.1)">
        <tspan x="0" y="0">Z</tspan>
      </text>
      <text class="h" transform="translate(21.88 40.49) rotate(-57.28) scale(.89 1.1)">
        <tspan x="0" y="0">Y</tspan>
      </text>
      <text class="h" transform="translate(25.58 34.74) rotate(-48.31) scale(.89 1.1)">
        <tspan x="0" y="0">G</tspan>
      </text>
      <text class="h" transform="translate(31.52 28.19) rotate(-37.06) scale(.89 1.1)">
        <tspan x="0" y="0">M</tspan>
      </text>
      <text class="h" transform="translate(39.5 22.42) rotate(-26.5) scale(.89 1.1)">
        <tspan x="0" y="0">U</tspan>
      </text>
      <text class="h" transform="translate(46.62 18.95) rotate(-16.61) scale(.89 1.1)">
        <tspan x="0" y="0">N</tspan>
      </text>
      <text class="h" transform="translate(54.79 16.69) rotate(-7.58) scale(.89 1.1)">
        <tspan x="0" y="0">T</tspan>
      </text>
      <text class="h" transform="translate(60.46 16.02) rotate(-2.73) scale(.89 1.1)">
        <tspan x="0" y="0"> </tspan>
      </text>
      <text class="h" transform="translate(62.88 15.91) rotate(.17) scale(.89 1.1)">
        <tspan x="0" y="0"> </tspan>
      </text>
      <text class="h" transform="translate(65.65 15.85) rotate(5.98) scale(.89 1.1)">
        <tspan x="0" y="0">B</tspan>
      </text>
      <text class="h" transform="translate(73.03 16.67) rotate(15.51) scale(.89 1.1)">
        <tspan x="0" y="0">O</tspan>
      </text>
      <text class="h" transform="translate(81.27 19.11) rotate(25.02) scale(.89 1.1)">
        <tspan x="0" y="0">R</tspan>
      </text>
      <text class="h" transform="translate(87.89 22.27) rotate(34.12) scale(.89 1.1)">
        <tspan x="0" y="0">A</tspan>
      </text>
      <text class="h" transform="translate(94.22 26.51) rotate(44.76) scale(.89 1.1)">
        <tspan x="0" y="0">W</tspan>
      </text>
      <text class="h" transform="translate(101.42 34) rotate(55.43) scale(.89 1.1)">
        <tspan x="0" y="0">S</tspan>
      </text>
      <text class="h" transform="translate(105.52 40.08) rotate(64.18) scale(.89 1.1)">
        <tspan x="0" y="0">K</tspan>
      </text>
      <text class="h" transform="translate(108.52 46.62) rotate(70.53) scale(.89 1.1)">
        <tspan x="0" y="0">I</tspan>
      </text>
      <text class="h" transform="translate(109.5 49.44) rotate(73.8) scale(.89 1.1)">
        <tspan x="0" y="0"> </tspan>
      </text>
      <text class="h" transform="translate(110.17 51.78) rotate(76.73) scale(.89 1.1)">
        <tspan x="0" y="0"> </tspan>
      </text>
      <text class="e" transform="translate(111.77 54.15) rotate(81.02) scale(.89 1)">
        <tspan x="0" y="0">•</tspan>
      </text>
      <text class="e" transform="translate(113.41 58.45) rotate(85.18) scale(.89 1)">
        <tspan x="0" y="0"> </tspan>
      </text>
      <text class="e" transform="translate(113.61 60.93) rotate(88.05) scale(.89 1)">
        <tspan x="0" y="0"> </tspan>
      </text>
      <text class="h" transform="translate(111.79 63.79) rotate(94.09) scale(.89 1.1)">
        <tspan x="0" y="0">A</tspan>
      </text>
      <text class="h" transform="translate(111.13 71.61) rotate(103.12) scale(.89 1.1)">
        <tspan x="0" y="0">R</tspan>
      </text>
      <text class="h" transform="translate(109.45 78.62) rotate(112.18) scale(.89 1.1)">
        <tspan x="0" y="0">C</tspan>
      </text>
      <text class="h" transform="translate(106.25 86.18) rotate(122.02) scale(.89 1.1)">
        <tspan x="0" y="0">H</tspan>
      </text>
      <text class="h" transform="translate(101.93 92.76) rotate(128.81) scale(.89 1.1)">
        <tspan x="0" y="0">I</tspan>
      </text>
      <text class="h" transform="translate(99.88 95.36) rotate(134.5) scale(.89 1.1)">
        <tspan x="0" y="0">T</tspan>
      </text>
      <text class="h" transform="translate(95.38 99.87) rotate(142.31) scale(.89 1.1)">
        <tspan x="0" y="0">E</tspan>
      </text>
      <text class="h" transform="translate(90.09 103.92) rotate(150.96) scale(.89 1.1)">
        <tspan x="0" y="0">C</tspan>
      </text>
      <text class="h" transform="translate(83.08 107.67) rotate(159.5) scale(.89 1.1)">
        <tspan x="0" y="0">T</tspan>
      </text>
      <text class="h" transform="translate(77.72 109.59) rotate(164.33) scale(.89 1.1)">
        <tspan x="0" y="0"> </tspan>
      </text>
      <text class="h" transform="translate(75.38 110.23) rotate(167.27) scale(.89 1.1)">
        <tspan x="0" y="0"> </tspan>
      </text>
      <text class="e" transform="translate(73 111.81) rotate(171.55) scale(.89 1)">
        <tspan x="0" y="0">•</tspan>
      </text>
      <text class="h" transform="translate(68.58 111.41) rotate(175.57) scale(.89 1.1)">
        <tspan x="0" y="0"> </tspan>
      </text>
      <text class="h" transform="translate(66.16 111.59) rotate(178.48) scale(.89 1.1)">
        <tspan x="0" y="0"> </tspan>
      </text>
      <text class="h" transform="translate(63.3 111.76) rotate(-175.18) scale(.89 1.1)">
        <tspan x="0" y="0">D</tspan>
      </text>
      <text class="h" transform="translate(55.57 110.93) rotate(-168.5) scale(.89 1.1)">
        <tspan x="0" y="0">I</tspan>
      </text>
      <text class="h" transform="translate(52.3 110.32) rotate(-162.61) scale(.89 1.1)">
        <tspan x="0" y="0">P</tspan>
      </text>
      <text class="h" transform="translate(45.81 108.19) rotate(-154.77) scale(.89 1.1)">
        <tspan x="0" y="0">L</tspan>
      </text>
      <text class="h" transform="translate(40.46 105.56) rotate(-149.54) scale(.89 1.1)">
        <tspan x="0" y="0">.</tspan>
      </text>
      <text class="h" transform="translate(38.55 104.44) rotate(-146.93) scale(.89 1.1)">
        <tspan x="0" y="0"> </tspan>
      </text>
      <text class="h" transform="translate(36.12 102.96) rotate(-140.74) scale(.89 1.1)">
        <tspan x="0" y="0">U</tspan>
      </text>
      <text class="h" transform="translate(30.15 97.94) rotate(-131.61) scale(.89 1.1)">
        <tspan x="0" y="0">S</tspan>
      </text>
      <text class="h" transform="translate(25.58 92.59) rotate(-125.39) scale(.89 1.1)">
        <tspan x="0" y="0">I</tspan>
      </text>
      <text class="h" transform="translate(23.68 89.96) rotate(-119.97) scale(.89 1.1)">
        <tspan x="0" y="0">/</tspan>
      </text>
      <text class="h" transform="translate(21.44 86.25) rotate(-113.97) scale(.89 1.1)">
        <tspan x="0" y="0">A</tspan>
      </text>
      <text class="h" transform="translate(18.32 79.01) rotate(-104.51) scale(.89 1.1)">
        <tspan x="0" y="0">A</tspan>
      </text>
      <text class="h" transform="translate(16.33 71.16) rotate(-93.69) scale(.89 1.1)">
        <tspan x="0" y="0">M</tspan>
      </text>
      <text class="h" transform="translate(15.99 61.72) rotate(-86.25) scale(.89 1.1)">
        <tspan x="0" y="0"> </tspan>
      </text>
      <text class="h" transform="translate(16.15 59.32) rotate(-83.38) scale(.89 1.1)">
        <tspan x="0" y="0"> </tspan>
      </text>
      <text class="e" transform="translate(15.46 56.55) rotate(-79.14) scale(.89 1)">
        <tspan x="0" y="0">•</tspan>
      </text>
      <text class="h" transform="translate(17.3 52.5) rotate(-75.13) scale(.89 1.1)">
        <tspan x="0" y="0"> </tspan>
      </text>
      <text />
    </g>
  </g>

  <!-- Middle band (counter-clockwise rotation) -->
  <g id="middle-band">
    <animateTransform attributeName="transform" attributeType="XML" type="rotate" from="360 63.78 63.78" to="0 63.78 63.78" dur="25s" repeatCount="indefinite" />
    <g id="b">
      <circle class="j" cx="63.78" cy="63.78" r="45.35" />
      <text class="g" transform="translate(55.67 100.74) rotate(-164.03) scale(.94 1)">
        <tspan x="0" y="0">N</tspan>
      </text>
      <text class="g" transform="translate(50.29 99.09) rotate(-156.81) scale(.94 1)">
        <tspan x="0" y="0">a</tspan>
      </text>
      <text class="g" transform="translate(46.28 97.27) rotate(-150.89) scale(.94 1)">
        <tspan x="0" y="0">r</tspan>
      </text>
      <text class="g" transform="translate(43.74 95.87) rotate(-145.13) scale(.94 1)">
        <tspan x="0" y="0">b</tspan>
      </text>
      <text class="g" transform="translate(39.74 92.99) rotate(-137.89) scale(.94 1)">
        <tspan x="0" y="0">u</tspan>
      </text>
      <text class="g" transform="translate(36.61 90.08) rotate(-132.78) scale(.94 1)">
        <tspan x="0" y="0">t</tspan>
      </text>
      <text class="g" transform="translate(35.15 88.49) rotate(-129.5) scale(.94 1)">
        <tspan x="0" y="0">t</tspan>
      </text>
      <text class="g" transform="translate(33.59 86.62) rotate(-124.43) scale(.94 1)">
        <tspan x="0" y="0">a</tspan>
      </text>
      <text class="g" transform="translate(31.25 83.08) rotate(-119.39) scale(.94 1)">
        <tspan x="0" y="0"> </tspan>
      </text>
      <text class="g" transform="translate(30.05 80.99) rotate(-114.38) scale(.94 1)">
        <tspan x="0" y="0">5</tspan>
      </text>
      <text class="g" transform="translate(28.23 76.83) rotate(-107.55) scale(.94 1)">
        <tspan x="0" y="0">2</tspan>
      </text>
      <text class="g" transform="translate(27.01 72.78) rotate(-102.54) scale(.94 1)">
        <tspan x="0" y="0">/</tspan>
      </text>
      <text class="g" transform="translate(26.47 70.42) rotate(-97.51) scale(.94 1)">
        <tspan x="0" y="0">1</tspan>
      </text>
      <text class="g" transform="translate(25.93 65.93) rotate(-90.65) scale(.94 1)">
        <tspan x="0" y="0">5</tspan>
      </text>
      <text class="g" transform="translate(25.95 61.69) rotate(-85.59) scale(.94 1)">
        <tspan x="0" y="0"> </tspan>
      </text>
      <text class="g" transform="translate(26.13 59.51) rotate(-82.27) scale(.94 1)">
        <tspan x="0" y="0">,</tspan>
      </text>
      <text class="g" transform="translate(26.44 57.1) rotate(-77.17) scale(.94 1)">
        <tspan x="0" y="0">0</tspan>
      </text>
      <text class="g" transform="translate(27.49 52.72) rotate(-70.37) scale(.94 1)">
        <tspan x="0" y="0">2</tspan>
      </text>
      <text class="g" transform="translate(28.99 48.7) rotate(-64.95) scale(.94 1)">
        <tspan x="0" y="0">-</tspan>
      </text>
      <text class="g" transform="translate(30.19 46.13) rotate(-59.67) scale(.94 1)">
        <tspan x="0" y="0">5</tspan>
      </text>
      <text class="g" transform="translate(32.51 42.26) rotate(-52.84) scale(.94 1)">
        <tspan x="0" y="0">4</tspan>
      </text>
      <text class="g" transform="translate(35.28 38.68) rotate(-45.95) scale(.94 1)">
        <tspan x="0" y="0">1</tspan>
      </text>
      <text class="g" transform="translate(38.3 35.67) rotate(-40.85) scale(.94 1)">
        <tspan x="0" y="0"> </tspan>
      </text>
      <text class="g" transform="translate(40.31 33.83) rotate(-33.69) scale(.94 1)">
        <tspan x="0" y="0">W</tspan>
      </text>
      <text class="g" transform="translate(46.24 30.09) rotate(-24.76) scale(.94 1)">
        <tspan x="0" y="0">a</tspan>
      </text>
      <text class="g" transform="translate(50.17 28.35) rotate(-19.39) scale(.94 1)">
        <tspan x="0" y="0">r</tspan>
      </text>
      <text class="g" transform="translate(52.79 27.43) rotate(-14.38) scale(.94 1)">
        <tspan x="0" y="0">s</tspan>
      </text>
      <text class="g" transform="translate(56.71 26.47) rotate(-8.29) scale(.94 1)">
        <tspan x="0" y="0">z</tspan>
      </text>
      <text class="g" transform="translate(60.78 25.91) rotate(-1.79) scale(.94 1)">
        <tspan x="0" y="0">a</tspan>
      </text>
      <text class="g" transform="translate(65.44 25.8) rotate(6.14) scale(.94 1)">
        <tspan x="0" y="0">w</tspan>
      </text>
      <text class="g" transform="translate(71.17 26.52) rotate(14.08) scale(.94 1)">
        <tspan x="0" y="0">a</tspan>
      </text>
      <text class="g" transform="translate(75.28 27.62) rotate(19.13) scale(.94 1)">
        <tspan x="0" y="0"> </tspan>
      </text>
      <text class="g" transform="translate(77.41 28.36) rotate(23.19) scale(.94 1)">
        <tspan x="0" y="0">•</tspan>
      </text>
      <text class="g" transform="translate(80.98 29.97) rotate(28.38) scale(.94 1)">
        <tspan x="0" y="0"> </tspan>
      </text>
      <text class="g" transform="translate(83.44 31.22) rotate(35.59) scale(.94 1)">
        <tspan x="0" y="0">W</tspan>
      </text>
      <text class="g" transform="translate(89.03 35.44) rotate(44.59) scale(.94 1)">
        <tspan x="0" y="0">a</tspan>
      </text>
      <text class="g" transform="translate(92.02 38.48) rotate(49.67) scale(.94 1)">
        <tspan x="0" y="0">t</tspan>
      </text>
      <text class="g" transform="translate(93.42 40.15) rotate(52.98) scale(.94 1)">
        <tspan x="0" y="0">t</tspan>
      </text>
      <text class="g" transform="translate(94.84 42.02) rotate(57.64) scale(.94 1)">
        <tspan x="0" y="0">s</tspan>
      </text>
      <text class="g" transform="translate(96.85 45.28) rotate(62.33) scale(.94 1)">
        <tspan x="0" y="0">t</tspan>
      </text>
      <text class="g" transform="translate(97.88 47.26) rotate(65.96) scale(.94 1)">
        <tspan x="0" y="0">r</tspan>
      </text>
      <text class="g" transform="translate(99.04 49.85) rotate(71.34) scale(.94 1)">
        <tspan x="0" y="0">a</tspan>
      </text>
      <text class="g" transform="translate(100.41 54.08) rotate(77.76) scale(.94 1)">
        <tspan x="0" y="0">s</tspan>
      </text>
      <text class="g" transform="translate(101.23 58.04) rotate(83.87) scale(.94 1)">
        <tspan x="0" y="0">s</tspan>
      </text>
      <text class="g" transform="translate(101.63 62.11) rotate(90.36) scale(.94 1)">
        <tspan x="0" y="0">e</tspan>
      </text>
      <text class="g" transform="translate(101.54 66.35) rotate(95.42) scale(.94 1)">
        <tspan x="0" y="0"> </tspan>
      </text>
      <text class="g" transform="translate(101.32 68.79) rotate(100.54) scale(.94 1)">
        <tspan x="0" y="0">1</tspan>
      </text>
      <text class="g" transform="translate(100.44 73.21) rotate(107.37) scale(.94 1)">
        <tspan x="0" y="0">2</tspan>
      </text>
      <text class="g" transform="translate(99.11 77.25) rotate(112.4) scale(.94 1)">
        <tspan x="0" y="0">,</tspan>
      </text>
      <text class="g" transform="translate(98.28 79.24) rotate(115.62) scale(.94 1)">
        <tspan x="0" y="0"> </tspan>
      </text>
      <text class="g" transform="translate(97.24 81.43) rotate(120.64) scale(.94 1)">
        <tspan x="0" y="0">4</tspan>
      </text>
      <text class="g" transform="translate(94.9 85.29) rotate(127.48) scale(.94 1)">
        <tspan x="0" y="0">0</tspan>
      </text>
      <text class="g" transform="translate(92.11 88.85) rotate(134.36) scale(.94 1)">
        <tspan x="0" y="0">5</tspan>
      </text>
      <text class="g" transform="translate(88.91 92.04) rotate(141.24) scale(.94 1)">
        <tspan x="0" y="0">6</tspan>
      </text>
      <text class="g" transform="translate(85.57 94.64) rotate(146.27) scale(.94 1)">
        <tspan x="0" y="0"> </tspan>
      </text>
      <text class="g" transform="translate(83.47 96.07) rotate(152.02) scale(.94 1)">
        <tspan x="0" y="0">B</tspan>
      </text>
      <text class="g" transform="translate(78.73 98.5) rotate(159.5) scale(.94 1)">
        <tspan x="0" y="0">a</tspan>
      </text>
      <text class="g" transform="translate(74.52 100.01) rotate(165.96) scale(.94 1)">
        <tspan x="0" y="0">s</tspan>
      </text>
      <text class="g" transform="translate(70.55 100.97) rotate(172.4) scale(.94 1)">
        <tspan x="0" y="0">e</tspan>
      </text>
      <text class="g" transform="translate(66.4 101.46) rotate(177.09) scale(.94 1)">
        <tspan x="0" y="0">l</tspan>
      </text>
      <text class="g" transform="translate(64.63 101.54) rotate(-179.95) scale(.94 1)">
        <tspan x="0" y="0"> </tspan>
      </text>
      <text class="g" transform="translate(62.26 101.55) rotate(-175.24) scale(.94 1)">
        <tspan x="0" y="0">•</tspan>
      </text>
      <text class="g" transform="translate(58.43 101.17) rotate(-170.49) scale(.94 1)">
        <tspan x="0" y="0"> </tspan>
      </text>
      <circle class="j" cx="63.78" cy="63.78" r="35.43" />
      <text class="g" transform="translate(79.37 53.83) rotate(61.32)">
        <tspan x="0" y="0"> </tspan>
      </text>
      <text class="g" transform="translate(80.24 55.18) rotate(69.75)">
        <tspan x="0" y="0">+</tspan>
      </text>
      <text class="g" transform="translate(81.68 59.05) rotate(80.42)">
        <tspan x="0" y="0">4</tspan>
      </text>
      <text class="g" transform="translate(82.29 62.41) rotate(90.49)">
        <tspan x="0" y="0">8</tspan>
      </text>
      <text class="g" transform="translate(82.22 65.96) rotate(98.58)">
        <tspan x="0" y="0"> </tspan>
      </text>
      <text class="g" transform="translate(82.07 67.59) rotate(107.01)">
        <tspan x="0" y="0">5</tspan>
      </text>
      <text class="g" transform="translate(81.13 70.82) rotate(118.1)">
        <tspan x="0" y="0">1</tspan>
      </text>
      <text class="g" transform="translate(79.56 73.85) rotate(128.82)">
        <tspan x="0" y="0">6</tspan>
      </text>
      <text class="g" transform="translate(77.3 76.59) rotate(136.82)">
        <tspan x="0" y="0"> </tspan>
      </text>
      <text class="g" transform="translate(76.15 77.8) rotate(144.31)">
        <tspan x="0" y="0">0</tspan>
      </text>
      <text class="g" transform="translate(73.41 79.82) rotate(154.85)">
        <tspan x="0" y="0">7</tspan>
      </text>
      <text class="g" transform="translate(70.35 81.31) rotate(165.35)">
        <tspan x="0" y="0">1</tspan>
      </text>
      <text class="g" transform="translate(66.89 82.16) rotate(173.37)">
        <tspan x="0" y="0"> </tspan>
      </text>
      <text class="g" transform="translate(65.27 82.44) rotate(-178.68)">
        <tspan x="0" y="0">0</tspan>
      </text>
      <text class="g" transform="translate(61.86 82.4) rotate(-168.23)">
        <tspan x="0" y="0">2</tspan>
      </text>
      <text class="g" transform="translate(58.52 81.75) rotate(-157.74)">
        <tspan x="0" y="0">7</tspan>
      </text>
      <text class="g" transform="translate(55.22 80.35) rotate(-149.6)">
        <tspan x="0" y="0"> </tspan>
      </text>
      <text class="g" transform="translate(53.68 79.45) rotate(-144.06)">
        <tspan x="0" y="0"> </tspan>
      </text>
      <text class="g" transform="translate(52.14 78.67) rotate(-136.56) scale(.99 .98)">
        <tspan x="0" y="0">•</tspan>
      </text>
      <text class="d" transform="translate(49.27 77.28) rotate(-130.48) scale(.99 .98)">
        <tspan x="0" y="0"> </tspan>
      </text>
      <text class="f" transform="translate(49.34 75.53) rotate(-126.96)">
        <tspan x="0" y="0"> </tspan>
      </text>
      <text class="f" transform="translate(48.56 74.51) rotate(-123)">
        <tspan x="0" y="0"> </tspan>
      </text>
      <text class="g" transform="translate(47.89 73.73) rotate(-114.89)">
        <tspan x="0" y="0">+</tspan>
      </text>
      <text class="g" transform="translate(46.18 69.86) rotate(-105.86)">
        <tspan x="0" y="0"> </tspan>
      </text>
      <text class="g" transform="translate(45.65 68.3) rotate(-97.83)">
        <tspan x="0" y="0">4</tspan>
      </text>
      <text class="g" transform="translate(45.14 64.92) rotate(-87.4)">
        <tspan x="0" y="0">1</tspan>
      </text>
      <text class="g" transform="translate(45.35 61.37) rotate(-79.44)">
        <tspan x="0" y="0"> </tspan>
      </text>
      <text class="g" transform="translate(45.56 59.75) rotate(-71.45)">
        <tspan x="0" y="0">7</tspan>
      </text>
      <text class="g" transform="translate(46.6 56.52) rotate(-60.94)">
        <tspan x="0" y="0">8</tspan>
      </text>
      <text class="g" transform="translate(48.23 53.51) rotate(-50.36)">
        <tspan x="0" y="0">2</tspan>
      </text>
      <text class="g" transform="translate(50.53 50.79) rotate(-42.48)">
        <tspan x="0" y="0"> </tspan>
      </text>
      <text class="g" transform="translate(51.68 49.63) rotate(-34.52)">
        <tspan x="0" y="0">5</tspan>
      </text>
      <text class="g" transform="translate(54.48 47.65) rotate(-23.91)">
        <tspan x="0" y="0">6</tspan>
      </text>
      <text class="g" transform="translate(57.56 46.24) rotate(-13.43)">
        <tspan x="0" y="0">5</tspan>
      </text>
      <text class="g" transform="translate(61.04 45.46) rotate(-5.43)">
        <tspan x="0" y="0"> </tspan>
      </text>
      <text class="g" transform="translate(62.69 45.21) rotate(2.6)">
        <tspan x="0" y="0">0</tspan>
      </text>
      <text class="g" transform="translate(66.07 45.32) rotate(12.97)">
        <tspan x="0" y="0">8</tspan>
      </text>
      <text class="g" transform="translate(69.41 46.05) rotate(23.49)">
        <tspan x="0" y="0">5</tspan>
      </text>
      <text class="g" transform="translate(72.65 47.51) rotate(31.55)">
        <tspan x="0" y="0"> </tspan>
      </text>
      <text class="g" transform="translate(74.19 48.45) rotate(37.16)">
        <tspan x="0" y="0"> </tspan>
      </text>
      <text class="g" transform="translate(75.7 49.26) rotate(44.62)">
        <tspan x="0" y="0">•</tspan>
      </text>
      <text class="f" transform="translate(77.6 51.45) rotate(51.04)">
        <tspan x="0" y="0"> </tspan>
      </text>
      <circle class="j" cx="63.78" cy="63.78" r="17.01" />
      <text class="i" transform="translate(60.42 66.74)">
        <tspan x="0" y="0">●</tspan>
      </text>
      <circle class="j" cx="63.78" cy="63.78" r="25.51" />
    </g>
  </g>

  <!-- Inner band (clockwise rotation) -->
  <g id="inner-band">
    <animateTransform attributeName="transform" attributeType="XML" type="rotate" from="0 63.78 63.78" to="360 63.78 63.78" dur="20s" repeatCount="indefinite" />
    <circle class="j" cx="63.78" cy="63.78" r="25.51" />
    <g>
      <text class="g" transform="translate(85.54 82.8) rotate(134.42) scale(.94 1)">
        <tspan x="0" y="0">z</tspan>
      </text>
      <text class="g" transform="translate(83.3 85.1) rotate(140.85) scale(.94 1)">
        <tspan x="0" y="0">y</tspan>
      </text>
      <text class="g" transform="translate(80.81 87.15) rotate(147.97) scale(.94 1)">
        <tspan x="0" y="0">g</tspan>
      </text>
      <text class="g" transform="translate(77.53 89.28) rotate(157.04) scale(.94 1)">
        <tspan x="0" y="0">m</tspan>
      </text>
      <text class="g" transform="translate(72.54 91.33) rotate(165.95) scale(.94 1)">
        <tspan x="0" y="0">u</tspan>
      </text>
      <text class="g" transform="translate(69.09 92.2) rotate(173.06) scale(.94 1)">
        <tspan x="0" y="0">n</tspan>
      </text>
      <text class="g" transform="translate(65.52 92.6) rotate(178.4) scale(.94 1)">
        <tspan x="0" y="0">t</tspan>
      </text>
      <text class="g" transform="translate(63.73 92.65) rotate(-178.03) scale(.94 1)">
        <tspan x="0" y="0">.</tspan>
      </text>
      <text class="g" transform="translate(61.95 92.64) rotate(-172.34) scale(.94 1)">
        <tspan x="0" y="0">b</tspan>
      </text>
      <text class="g" transform="translate(58.05 92.11) rotate(-164.93) scale(.94 1)">
        <tspan x="0" y="0">o</tspan>
      </text>
      <text class="g" transform="translate(54.6 91.15) rotate(-159.3) scale(.94 1)">
        <tspan x="0" y="0">r</tspan>
      </text>
      <text class="g" transform="translate(52.59 90.43) rotate(-153.65) scale(.94 1)">
        <tspan x="0" y="0">a</tspan>
      </text>
      <text class="g" transform="translate(49.37 88.89) rotate(-145.49) scale(.94 1)">
        <tspan x="0" y="0">w</tspan>
      </text>
      <text class="g" transform="translate(45.57 86.23) rotate(-137.7) scale(.94 1)">
        <tspan x="0" y="0">s</tspan>
      </text>
      <text class="g" transform="translate(43.17 84.05) rotate(-131.21) scale(.94 1)">
        <tspan x="0" y="0">k</tspan>
      </text>
      <text class="g" transform="translate(41.08 81.61) rotate(-126.64) scale(.94 1)">
        <tspan x="0" y="0">i</tspan>
      </text>
      <text class="g" transform="translate(40.16 80.56) rotate(-120.13) scale(.94 1)">
        <tspan x="0" y="0">@</tspan>
      </text>
      <text class="g" transform="translate(37.61 76.08) rotate(-111.25) scale(.94 1)">
        <tspan x="0" y="0">g</tspan>
      </text>
      <text class="g" transform="translate(36.12 72.44) rotate(-102) scale(.94 1)">
        <tspan x="0" y="0">m</tspan>
      </text>
      <text class="g" transform="translate(35.07 67.18) rotate(-93.08) scale(.94 1)">
        <tspan x="0" y="0">a</tspan>
      </text>
      <text class="g" transform="translate(34.92 63.57) rotate(-88.08) scale(.94 1)">
        <tspan x="0" y="0">i</tspan>
      </text>
      <text class="g" transform="translate(34.96 62.15) rotate(-85.26) scale(.94 1)">
        <tspan x="0" y="0">l</tspan>
      </text>
      <text class="g" transform="translate(35.07 60.73) rotate(-82.08) scale(.94 1)">
        <tspan x="0" y="0">.</tspan>
      </text>
      <text class="g" transform="translate(35.28 58.97) rotate(-76.77) scale(.94 1)">
        <tspan x="0" y="0">c</tspan>
      </text>
      <text class="g" transform="translate(36.09 55.47) rotate(-69.68) scale(.94 1)">
        <tspan x="0" y="0">o</tspan>
      </text>
      <text class="g" transform="translate(37.26 52.1) rotate(-60.86) scale(.94 1)">
        <tspan x="0" y="0">m</tspan>
      </text>
      <text class="g" transform="translate(39.97 47.46) rotate(-53.79) scale(.94 1)">
        <tspan x="0" y="0"> </tspan>
      </text>
      <text class="g" transform="translate(41.37 46.34) rotate(-48.8) scale(.94 1)">
        <tspan x="0" y="0">•</tspan>
      </text>
      <text class="f" transform="translate(43.16 43.59) rotate(-44.29) scale(.94 1)">
        <tspan x="0" y="0"> </tspan>
      </text>
      <text class="g" transform="translate(43.97 42.66) rotate(-38.39) scale(.94 1)">
        <tspan x="0" y="0">w</tspan>
      </text>
      <text class="g" transform="translate(47.61 39.77) rotate(-29.22) scale(.94 1)">
        <tspan x="0" y="0">w</tspan>
      </text>
      <text class="g" transform="translate(51.68 37.48) rotate(-20.07) scale(.94 1)">
        <tspan x="0" y="0">w</tspan>
      </text>
      <text class="g" transform="translate(56.08 35.96) rotate(-13.69) scale(.94 1)">
        <tspan x="0" y="0">.</tspan>
      </text>
      <text class="g" transform="translate(57.79 35.51) rotate(-8.71) scale(.94 1)">
        <tspan x="0" y="0">z</tspan>
      </text>
      <text class="g" transform="translate(60.96 35.02) rotate(-2.28) scale(.94 1)">
        <tspan x="0" y="0">y</tspan>
      </text>
      <text class="g" transform="translate(64.18 34.86) rotate(4.83) scale(.94 1)">
        <tspan x="0" y="0">g</tspan>
      </text>
      <text class="g" transform="translate(68.09 35.13) rotate(14.01) scale(.94 1)">
        <tspan x="0" y="0">m</tspan>
      </text>
      <text class="g" transform="translate(73.29 36.49) rotate(22.81) scale(.94 1)">
        <tspan x="0" y="0">u</tspan>
      </text>
      <text class="g" transform="translate(76.59 37.87) rotate(29.89) scale(.94 1)">
        <tspan x="0" y="0">n</tspan>
      </text>
      <text class="g" transform="translate(79.69 39.69) rotate(35.21) scale(.94 1)">
        <tspan x="0" y="0">t</tspan>
      </text>
      <text class="g" transform="translate(81.16 40.66) rotate(40.9) scale(.94 1)">
        <tspan x="0" y="0">b</tspan>
      </text>
      <text class="g" transform="translate(84.14 43.25) rotate(48.43) scale(.94 1)">
        <tspan x="0" y="0">o</tspan>
      </text>
      <text class="g" transform="translate(86.5 45.96) rotate(54.13) scale(.94 1)">
        <tspan x="0" y="0">r</tspan>
      </text>
      <text class="g" transform="translate(87.77 47.66) rotate(59.78) scale(.94 1)">
        <tspan x="0" y="0">a</tspan>
      </text>
      <text class="g" transform="translate(89.6 50.71) rotate(67.81) scale(.94 1)">
        <tspan x="0" y="0">w</tspan>
      </text>
      <text class="g" transform="translate(91.33 55.05) rotate(75.64) scale(.94 1)">
        <tspan x="0" y="0">s</tspan>
      </text>
      <text class="g" transform="translate(92.13 58.18) rotate(82.08) scale(.94 1)">
        <tspan x="0" y="0">k</tspan>
      </text>
      <text class="g" transform="translate(92.54 61.37) rotate(86.7) scale(.94 1)">
        <tspan x="0" y="0">i</tspan>
      </text>
      <text class="g" transform="translate(92.63 62.78) rotate(89.88) scale(.94 1)">
        <tspan x="0" y="0">.</tspan>
      </text>
      <text class="g" transform="translate(92.68 64.55) rotate(95.21) scale(.94 1)">
        <tspan x="0" y="0">c</tspan>
      </text>
      <text class="g" transform="translate(92.36 68.12) rotate(102.29) scale(.94 1)">
        <tspan x="0" y="0">o</tspan>
      </text>
      <text class="g" transform="translate(91.68 71.61) rotate(111.09) scale(.94 1)">
        <tspan x="0" y="0">m</tspan>
      </text>
      <text class="g" transform="translate(89.63 76.61) rotate(118.16) scale(.94 1)">
        <tspan x="0" y="0"> </tspan>
      </text>
      <text class="g" transform="translate(88.41 77.92) rotate(123.12) scale(.94 1)">
        <tspan x="0" y="0">•</tspan>
      </text>
    </g>
  </g>

  <!-- Center (stationary) -->
  <g id="center">
    <circle class="j" cx="63.78" cy="63.78" r="17.01" />
    <text class="i" transform="translate(60.42 66.74)">
      <tspan x="0" y="0">●</tspan>
    </text>
  </g>
</svg>